<?xml version="1.0" encoding="UTF-8"?>
<!-- Created with Inkscape (http://www.inkscape.org/) -->
<svg width="289.25" height="284.7" version="1.1" viewBox="0 0 289.25 284.7" xmlns="http://www.w3.org/2000/svg">
 <g transform="translate(.70486 -.13915)">
  <g>
   <rect transform="matrix(1 0 -.27124 .96251 0 0)" x="61.692" y="58.927" width="115.89" height="179.35" ry="21.412" fill="#fff" stroke="#000" stroke-width="5.3971"/>
   <rect transform="matrix(1 0 -.27563 .96126 0 0)" x="82.032" y="79.703" width="74.251" height="137.27" ry="19.379" fill="#d50000" stroke-width="1.0669"/>
  </g>
  <rect transform="matrix(1 0 -.27124 .96251 0 0)" x="118.91" y="2.8431" width="115.89" height="179.35" ry="21.412" fill="#fff" stroke="#000" stroke-width="5.3971"/>
  <rect transform="matrix(1 0 -.27563 .96126 0 0)" x="140.59" y="21.947" width="74.251" height="137.27" ry="19.379" fill="#304ffe" stroke-width="1.0669"/>
  <rect transform="matrix(1 0 -.27124 .96251 0 0)" x="131.06" y="113.89" width="115.89" height="179.35" ry="21.412" fill="#fff" stroke="#000" stroke-width="5.3971"/>
  <rect transform="matrix(1 0 -.27563 .96126 0 0)" x="154.02" y="137.57" width="74.251" height="137.27" ry="19.379" fill="#ffd600" stroke-width="1.0669"/>
  <rect transform="matrix(1 0 -.27124 .96251 0 0)" x="190.72" y="58.367" width="115.89" height="179.35" ry="21.412" fill="#fff" stroke="#000" stroke-width="5.3971"/>
  <rect transform="matrix(1 0 -.27563 .96126 0 0)" x="212.54" y="80.494" width="74.251" height="137.27" ry="19.379" fill="#00bb4e" stroke-width="1.0669"/>
 </g>
</svg>
