<svg width="138.61mm" height="187.76mm" version="1.1" viewBox="0 0 138.61 187.76" xml:space="preserve" xmlns="http://www.w3.org/2000/svg"><g transform="translate(-51.615 -70.496)"><g transform="translate(-5.7793 -12.304)" stroke="#000" stroke-linejoin="bevel"><rect x="60.023" y="85.428" width="89.954" height="126.14" ry="10.02" fill="#fff" stroke-width="5.2576" style="paint-order:normal"/><rect x="74.494" y="101.69" width="61.011" height="93.616" ry="7.4362" fill="#d50000" stroke-width="1.7388" style="paint-order:normal"/></g><g transform="translate(37.616 44.06)" stroke="#000" stroke-linejoin="bevel"><rect x="60.023" y="85.428" width="89.954" height="126.14" ry="10.02" fill="#fff" stroke-width="5.2576" style="paint-order:normal"/><rect x="74.494" y="101.69" width="61.011" height="93.616" ry="7.4362" fill="#ffd600" stroke-width="1.7388" style="paint-order:normal"/></g><g transform="matrix(1.0531 0 0 1.0531 10.588 7.7372)"><rect x="60.023" y="85.428" width="89.954" height="126.14" ry="10.02" fill="#fff" stroke="#000" stroke-linejoin="bevel" stroke-width="5.2576" style="paint-order:normal"/><rect x="74.494" y="101.69" width="61.011" height="93.616" ry="7.4362" fill="#304ffe" stroke="#000" stroke-linejoin="bevel" stroke-width="1.7388" style="paint-order:normal"/><g transform="translate(-21.262 91.209)"><path transform="translate(21.262 -91.209)" d="m123.9 144.09c5.5793-3.0372 8.9941-14.402 0.0654-21.278-6.2198-4.4182-14.359 0.43042-14.359 0.43042-4.4125 3.5904-4.6467 16.569-0.28281 20.97 4.0589 3.8013 10.347 3.1471 14.577-0.12268z" fill="#fff" style="paint-order:normal"/><path d="m130.44 31.254c26.151-10.205 29.022 31.573 0 23.281" fill="none" stroke="#000" stroke-linejoin="bevel" stroke-width="2.5" style="paint-order:normal"/><circle cx="135.53" cy="37.479" r="1.9249" style="paint-order:normal"/><circle cx="135.53" cy="47.896" r="1.9249" style="paint-order:normal"/><path d="m142.67 36.912c3.6233 1.5852 3.3968 9.5112 0 11.549" fill="none" stroke="#000" stroke-linejoin="bevel" stroke-width="1.3" style="paint-order:normal"/></g><g transform="rotate(180 115.63 102.9)"><path transform="translate(-1.1667e-6)" d="m145.4 53.213c5.5793-3.0372 8.9941-14.402 0.0654-21.278-6.2198-4.4182-14.359 0.43042-14.359 0.43042-4.4125 3.5904-4.6467 16.569-0.28281 20.97 4.0589 3.8013 10.347 3.1471 14.577-0.12268z" fill="#fff" style="paint-order:normal"/><path d="m130.44 31.254c26.151-10.205 29.022 31.573 0 23.281" fill="none" stroke="#000" stroke-linejoin="bevel" stroke-width="2.5" style="paint-order:normal"/><circle cx="135.53" cy="37.479" r="1.9249" style="paint-order:normal"/><circle cx="135.53" cy="47.896" r="1.9249" style="paint-order:normal"/><path d="m145.62 48.424c-3.6233-1.5852-3.3968-9.5112 0-11.549" fill="none" stroke="#000" stroke-linejoin="bevel" stroke-width="1.3" style="paint-order:normal"/></g><path transform="translate(-21.262 91.209)" d="m126.29 31.254v51.984m0-51.984v51.984" stroke="#000" stroke-linejoin="bevel" stroke-width="2.5" style="paint-order:normal"/></g></g></svg>
